<svg id="群組_10" data-name="群組 10" xmlns="http://www.w3.org/2000/svg" viewBox="0 0 268 159"><defs><style>.cls-1{isolation:isolate;}.cls-2{fill:#5e483f;}.cls-3{fill:#5e493f;stroke:#797979;}</style></defs><g id="作_者" data-name="作 者" class="cls-1"><g class="cls-1"><path class="cls-2" d="M31.68,47c-1.26,1.89-2.7,3.78-4.23,5.67a60.09,60.09,0,0,1,9.63,8.46L32.22,65h16V90.29H20.16c-.27,1.89-.63,3.69-1,5.4H49.23v23.58H39.06V115H24.93v4.41h-10V108.38c-2.7,5.58-6,9.9-9.9,12.69L2,117.83c6.75-9.45,8.37-19,8.37-42.57V67.43a53.72,53.72,0,0,1-6.57,3.78l-2.34-4c10-8.19,18.72-19.17,23.31-31.95l11.43,3.42a23.76,23.76,0,0,1-1.62,3.42A105.42,105.42,0,0,1,52.65,54.92l-7.47,7.74A168.21,168.21,0,0,0,31.68,47ZM28.26,65c-1.62-2.79-3.24-5.49-5-7.92A62.69,62.69,0,0,1,15,64.19l4.86.81ZM38.34,85V80H21c-.09,1.71-.09,3.33-.27,5Zm0-14.67H21V75H38.34Zm-13.41,30.6v9H39.06v-9ZM79.2,36.83V110c0,10.08-10.08,13.5-25.83,5.22l1-4.32c13,1.71,14.4,1.26,14.4-3.87V36.83ZM63.36,99.65H53.73V45.74h9.63Z" transform="translate(1.5 0.5)"/><path class="cls-2" d="M115.65,58.61v61.11H104.49V74.63A55.15,55.15,0,0,1,94.41,84l-3-3.69c8.37-10.44,15.93-24.66,20.79-44.37l11.52,3.42A96.62,96.62,0,0,1,115.65,58.61Zm32.94-1.08v14h21.5v5.58h-21.5V90.83h21.77v5.58H148.59v23.22H137.25V57.53h-2.61A70.35,70.35,0,0,1,119,77.15l-3.15-3.42c6.93-9.45,12.15-23.94,14.4-36.81L142,40.07a85.64,85.64,0,0,1-4.5,11.79H173v5.67Z" transform="translate(1.5 0.5)"/><path class="cls-2" d="M235.25,70.58A123.37,123.37,0,0,1,222,79.13h30.51V120H241.37v-5.94H211.76v6.12H200.51V89a121.88,121.88,0,0,1-17.37,4.86l-1.35-4.68a135.74,135.74,0,0,0,37.8-18.63H184.22V64.73h29.43V53.3H194.48V47.63h19.17V36.56h11.7V47.63h17.46v.45c1.8-2.34,3.42-4.77,5-7.29l10.53,6a89,89,0,0,1-15.93,17.91h19.89v5.85Zm6.12,14.13H211.76v8.73h29.61Zm0,14.22H211.76v9.54h29.61Zm-14.31-34.2A115,115,0,0,0,238.58,53.3H225.35V64.73Z" transform="translate(1.5 0.5)"/></g></g><rect id="矩形_1_拷貝_4" data-name="矩形 1 拷貝 4" class="cls-3" x="0.5" y="6.5" width="267" height="2"/><rect id="矩形_1_拷貝_5" data-name="矩形 1 拷貝 5" class="cls-3" x="0.5" y="0.5" width="267" height="2"/><rect id="矩形_1_拷貝_6" data-name="矩形 1 拷貝 6" class="cls-3" x="0.5" y="156.5" width="267" height="2"/><rect id="矩形_1_拷貝_7" data-name="矩形 1 拷貝 7" class="cls-3" x="0.5" y="150.5" width="267" height="2"/></svg>