<svg id="群組_10" data-name="群組 10" xmlns="http://www.w3.org/2000/svg" viewBox="0 0 268 159"><defs><style>.cls-1{isolation:isolate;}.cls-2{fill:#5e483f;}.cls-3{fill:#5e493f;stroke:#797979;}</style></defs><g id="出版者" class="cls-1"><g class="cls-1"><path class="cls-2" d="M76,81.56V119.9H64.62v-7.11H18.82v7.11H7.48V81.56H18.82v25.29H35.74v-31H11.44V44.12H22.6V70H35.74V37.1h12V70H61.12V44.12H72.27V75.8H47.71v31.05H64.62V81.56Z" transform="translate(1.5 0.5)"/><path class="cls-2" d="M172.71,109.46,166.5,120a51.31,51.31,0,0,1-15.84-13.68,55.08,55.08,0,0,1-21.06,14.13l-2.07-3.87a56.07,56.07,0,0,0,18.72-17.19c-4.59-8.64-6.93-18.72-7.92-29.43-.27,20.16-2.88,36.09-13,46.53l-1.89-1.35v4.5h-9.81V84.08H106.2c-1.17,19.71-5.67,30.33-11.34,36.63L91,118.1c4.59-9.36,5.13-20.7,5.13-48.24V37h10.35V63h5.85V37.91h9.45V63h4.32v5.4H106.47v5.13c0,1.8,0,3.51-.09,5.22h17.1v31.86C126.9,102.17,128,91,128,71.84V40.79l9.63,2.34a73,73,0,0,0,24.12-7.74l8,9.54a130.72,130.72,0,0,1-31.41,3.33V61.4h18l2.16-2,10.26,3.33C167.22,76.52,163.26,88.58,157,98.3A66,66,0,0,0,172.71,109.46ZM151,91A74.67,74.67,0,0,0,157,66.8H142.47C144,77,146.88,84.71,151,91Z" transform="translate(1.5 0.5)"/><path class="cls-2" d="M234,70.58a123.37,123.37,0,0,1-13.23,8.55h30.51V120H240.12v-5.94H210.51v6.12H199.26V89a121.88,121.88,0,0,1-17.37,4.86l-1.35-4.68a135.74,135.74,0,0,0,37.8-18.63H183V64.73H212.4V53.3H193.23V47.63H212.4V36.56h11.7V47.63h17.46v.45c1.8-2.34,3.42-4.77,5-7.29l10.53,6A89,89,0,0,1,241.2,64.73h19.89v5.85Zm6.12,14.13H210.51v8.73h29.61Zm0,14.22H210.51v9.54h29.61Zm-14.31-34.2A115,115,0,0,0,237.33,53.3H224.1V64.73Z" transform="translate(1.5 0.5)"/></g></g><rect id="矩形_1" data-name="矩形 1" class="cls-3" x="0.5" y="6.5" width="267" height="2"/><rect id="矩形_1_拷貝" data-name="矩形 1 拷貝" class="cls-3" x="0.5" y="0.5" width="267" height="2"/><rect id="矩形_1_拷貝_2" data-name="矩形 1 拷貝 2" class="cls-3" x="0.5" y="156.5" width="267" height="2"/><rect id="矩形_1_拷貝_3" data-name="矩形 1 拷貝 3" class="cls-3" x="0.5" y="150.5" width="267" height="2"/></svg>